<?xml version="1.0" encoding="utf-8"?>
<!-- Generator: Adobe Illustrator 26.0.2, SVG Export Plug-In . SVG Version: 6.00 Build 0)  -->
<svg version="1.1" id="Layer_1" xmlns="http://www.w3.org/2000/svg" xmlns:xlink="http://www.w3.org/1999/xlink" x="0px" y="0px"
	 viewBox="0 0 24 24" style="enable-background:new 0 0 24 24;" xml:space="preserve">
<style type="text/css">
	.st0{fill-rule:evenodd;clip-rule:evenodd;fill:#222221;}
</style>
<path class="st0" d="M16.8,4.6C16.8,3.2,18,2,19.4,2c0,0,0,0,0,0C20.8,2,22,3.2,22,4.6c0,1.4-1.2,2.6-2.6,2.6c0,0,0,0,0,0
	C18,7.2,16.8,6,16.8,4.6C16.8,4.6,16.8,4.6,16.8,4.6z M20.5,4.6c0-0.6-0.5-1.1-1.1-1.1c-0.6,0-1.2,0.4-1.2,1.1
	c0,0.6,0.4,1.2,1.1,1.2c0,0,0.1,0,0.1,0C20,5.7,20.5,5.2,20.5,4.6z M15.5,9.5c0.2-0.3,0.7-0.4,1-0.1c0.3,0.2,0.4,0.6,0.2,0.9
	l-0.1,0.1l-2.8,3.7c-0.2,0.3-0.6,0.4-0.9,0.2l-0.1-0.1l-2.7-2.1l-2.5,3.2c-0.2,0.3-0.6,0.4-0.9,0.2l-0.1-0.1
	c-0.3-0.2-0.4-0.6-0.2-0.9l0.1-0.1l2.9-3.8c0.2-0.3,0.6-0.4,0.9-0.2l0.1,0.1l2.7,2.1L15.5,9.5L15.5,9.5z M15.2,3.5
	c0-0.4-0.3-0.7-0.7-0.7h-7l-0.2,0C4.1,2.9,2,5.2,2,8.5v7.8l0,0.2C2.1,19.8,4.2,22,7.5,22h8.3l0.2,0c3.2-0.1,5.2-2.4,5.2-5.7V9.5
	l0-0.1c-0.1-0.4-0.4-0.7-0.8-0.6c-0.4,0-0.6,0.4-0.6,0.7v6.8l0,0.2c-0.1,2.4-1.6,4-4,4H7.5l-0.2,0c-2.3-0.1-3.8-1.7-3.8-4.2V8.5
	l0-0.2c0.1-2.4,1.6-4,4-4h7l0.1,0C15,4.2,15.2,3.9,15.2,3.5z"/>
</svg>
