<?xml version="1.0" encoding="utf-8"?>
<!-- Generator: Adobe Illustrator 26.0.2, SVG Export Plug-In . SVG Version: 6.00 Build 0)  -->
<svg version="1.1" id="Layer_1" xmlns="http://www.w3.org/2000/svg" xmlns:xlink="http://www.w3.org/1999/xlink" x="0px" y="0px"
	 viewBox="0 0 24 24" style="enable-background:new 0 0 24 24;" xml:space="preserve">
<style type="text/css">
	.st0{fill:#222221;}
</style>
<g>
	<g>
		<path class="st0" d="M11.9,22c-5.5,0-10-4.5-10-10c0-0.3,0.1-0.5,0.4-0.6c0.2-0.1,0.5-0.1,0.7,0l3.1,1.5c0.4,0.2,0.5,0.6,0.3,1
			c-0.2,0.4-0.6,0.5-1,0.3l-1.9-1c0.6,4.1,4.1,7.2,8.4,7.2c0.4,0,0.8,0.3,0.8,0.8S12.3,22,11.9,22z M16.7,20.6
			c-2.2,0-3.9-1.8-3.9-3.9s1.8-3.9,3.9-3.9s3.9,1.8,3.9,3.9S18.8,20.6,16.7,20.6z M16.7,14.3c-1.3,0-2.4,1.1-2.4,2.4
			s1.1,2.4,2.4,2.4s2.4-1.1,2.4-2.4S18,14.3,16.7,14.3z M21.2,12.7c-0.1,0-0.2,0-0.3-0.1l-3.1-1.5c-0.4-0.2-0.5-0.6-0.3-1
			c0.2-0.4,0.6-0.5,1-0.3l1.9,1c-0.6-4.1-4.1-7.2-8.4-7.2c-0.4,0-0.8-0.3-0.8-0.8S11.5,2,11.9,2c5.5,0,10,4.5,10,10
			c0,0.3-0.1,0.5-0.4,0.6C21.4,12.7,21.3,12.7,21.2,12.7z M7.2,11.1C7.2,11.1,7.2,11.1,7.2,11.1c-2.2,0-3.9-1.8-3.9-3.9
			c0-2.2,1.8-3.9,3.9-3.9c2.2,0,3.9,1.8,3.9,3.9C11.1,9.4,9.3,11.1,7.2,11.1z M7.2,4.8c-1.3,0-2.4,1.1-2.4,2.4
			c0,1.3,1.1,2.4,2.4,2.4l0,0c0,0,0,0,0,0c0.6,0,1.3-0.3,1.7-0.7c0.5-0.5,0.7-1.1,0.7-1.7C9.6,5.9,8.5,4.8,7.2,4.8z"/>
	</g>
</g>
</svg>
