<?xml version="1.0" encoding="utf-8"?>
<!-- Generator: Adobe Illustrator 26.0.2, SVG Export Plug-In . SVG Version: 6.00 Build 0)  -->
<svg version="1.1" id="Layer_1" xmlns="http://www.w3.org/2000/svg" xmlns:xlink="http://www.w3.org/1999/xlink" x="0px" y="0px"
	 viewBox="0 0 24 24" style="enable-background:new 0 0 24 24;" xml:space="preserve">
<style type="text/css">
	.st0{fill:#222221;}
</style>
<g>
	<path class="st0" d="M11.5,12.2C6.3,12.2,2,16,2,20.7c0,0.4,0.3,0.8,0.8,0.8s0.8-0.3,0.8-0.8c0-3.9,3.6-7,8-7
		c0.4,0,0.8-0.3,0.8-0.8S11.9,12.2,11.5,12.2z"/>
	<path class="st0" d="M19.4,13.7c-0.6,0-1.1,0.2-1.5,0.6c-0.4-0.4-1-0.6-1.5-0.6c-1.4,0-2.6,1.3-2.6,2.9c0,2.5,2.5,4.8,3.9,5.3
		c0.1,0,0.2,0.1,0.3,0.1s0.2,0,0.3-0.1c1.4-0.5,3.9-2.8,3.9-5.3C22,15,20.8,13.7,19.4,13.7z M17.8,20.4c-1-0.6-2.7-2.1-2.7-3.8
		c0-0.8,0.5-1.4,1.1-1.4c0.3,0,0.7,0.2,0.9,0.6c0.3,0.4,1,0.4,1.3,0c0.2-0.4,0.5-0.6,0.9-0.6c0.6,0,1.1,0.6,1.1,1.4
		C20.5,18.2,18.9,19.8,17.8,20.4z"/>
	<path class="st0" d="M16.6,6.1c0-2.3-1.9-4.2-4.2-4.2c-2.3,0-4.2,1.9-4.2,4.2s1.9,4.2,4.2,4.2C14.8,10.3,16.6,8.4,16.6,6.1z
		 M12.5,8.8c-1.5,0-2.7-1.2-2.7-2.7s1.2-2.7,2.7-2.7c1.5,0,2.7,1.2,2.7,2.7S13.9,8.8,12.5,8.8z"/>
</g>
</svg>
