<?xml version="1.0" encoding="utf-8"?>
<!-- Generator: Adobe Illustrator 26.0.2, SVG Export Plug-In . SVG Version: 6.00 Build 0)  -->
<svg version="1.1" id="Layer_1" xmlns="http://www.w3.org/2000/svg" xmlns:xlink="http://www.w3.org/1999/xlink" x="0px" y="0px"
	 viewBox="0 0 24 24" style="enable-background:new 0 0 24 24;" xml:space="preserve">
<style type="text/css">
	.st0{fill-rule:evenodd;clip-rule:evenodd;fill:#222221;}
</style>
<path class="st0" d="M5.9,2.5C3.8,2.5,2,4.3,2,6.4c0,2.2,1.8,3.9,3.9,3.9c2.2,0,3.9-1.8,3.9-3.9C9.9,4.3,8.1,2.5,5.9,2.5L5.9,2.5z
	 M5.9,4c1.3,0,2.4,1.1,2.4,2.4c0,1.3-1.1,2.4-2.4,2.4c-1.3,0-2.4-1.1-2.4-2.4C3.5,5.1,4.6,4,5.9,4z M22,6.4c0-0.4-0.3-0.8-0.8-0.8
	c0,0,0,0,0,0h-7.7l-0.1,0c-0.4,0.1-0.7,0.5-0.6,0.9c0.1,0.4,0.4,0.6,0.7,0.6h7.7l0.1,0C21.7,7.1,22,6.8,22,6.4z M14.1,17.6
	c0-2.2,1.8-3.9,3.9-3.9c0,0,0,0,0,0c2.2,0,3.9,1.8,3.9,3.9c0,0,0,0,0,0c0,2.2-1.8,3.9-3.9,3.9c0,0,0,0,0,0
	C15.9,21.5,14.1,19.7,14.1,17.6L14.1,17.6z M20.5,17.6c0-1.3-1.1-2.4-2.4-2.4c-1.3,0-2.4,1.1-2.4,2.4c0,0,0,0,0,0
	c0,1.3,1.1,2.4,2.4,2.4c0,0,0,0,0,0C19.4,20,20.5,18.9,20.5,17.6z M11.2,17.6c0-0.4-0.3-0.8-0.8-0.8c0,0,0,0,0,0H2.8l-0.1,0
	C2.2,16.9,2,17.3,2,17.7c0.1,0.4,0.4,0.6,0.7,0.6h7.7l0.1,0C10.9,18.3,11.2,17.9,11.2,17.6L11.2,17.6z"/>
</svg>
