<?xml version="1.0" encoding="utf-8"?>
<!-- Generator: Adobe Illustrator 26.0.2, SVG Export Plug-In . SVG Version: 6.00 Build 0)  -->
<svg version="1.1" id="Layer_1" xmlns="http://www.w3.org/2000/svg" xmlns:xlink="http://www.w3.org/1999/xlink" x="0px" y="0px"
	 viewBox="0 0 24 24" style="enable-background:new 0 0 24 24;" xml:space="preserve">
<style type="text/css">
	.st0{fill-rule:evenodd;clip-rule:evenodd;fill:#222221;}
</style>
<path class="st0" d="M13.4,2c-0.4,0-0.8,0.1-1,0.4C12.2,2.6,12,2.8,12,3.1l0,0.2l0,0.1l0.4,6.5c0.1,0.8,0.8,1.5,1.6,1.4l6.6-0.4
	c0.4,0,0.7-0.2,1-0.5C21.9,10.2,22,10,22,9.7l0-0.2l0-0.1C21.3,5.2,17.7,2.1,13.4,2L13.4,2z M13.4,3.4l0.2,0
	c3.4,0.2,6.2,2.6,6.9,5.9l0,0.2l-6.6,0.4c0,0-0.1,0-0.1-0.1C13.9,9.9,13.4,3.4,13.4,3.4z M8.8,5.8c0.7-0.1,1.4,0.3,1.7,0.9
	c0.1,0.2,0.1,0.4,0.2,0.6l0.4,5.5c0,0.1,0,0.1,0.1,0.2c0,0,0.1,0.1,0.2,0.1l0.1,0l5.6-0.3c0.5,0,0.9,0.1,1.2,0.4
	c0.3,0.3,0.5,0.7,0.5,1.2c-0.2,3.6-2.9,6.6-6.5,7.4c-3.6,0.8-7.3-0.9-9.1-4c-0.5-0.8-0.8-1.7-0.9-2.6l0-0.3C2,14.6,2,14.3,2,14.1
	l0-0.2c0-3.8,2.7-7,6.4-7.9l0.3-0.1L8.8,5.8L8.8,5.8z M9,7.3L9,7.3L8.7,7.3c-3,0.7-5.1,3.3-5.2,6.3l0,0.2c0,0.2,0,0.4,0,0.6l0,0.2
	c0.1,0.9,0.4,1.7,0.8,2.4c1.5,2.6,4.5,4,7.5,3.3s5.2-3.1,5.4-6.1c0,0,0-0.1-0.1-0.1c0,0,0,0-0.1,0l0,0l-5.6,0.3
	c-0.5,0-0.9-0.1-1.3-0.4c-0.4-0.3-0.6-0.7-0.6-1.2L9.2,7.4c0,0,0,0,0-0.1C9.1,7.3,9.1,7.3,9,7.3L9,7.3z"/>
</svg>
