<svg xmlns="http://www.w3.org/2000/svg" width="222" height="81" fill="none"><rect width="122" height="80" x="100" y="1" fill="#fff" rx="20"/><path fill="#29374E" d="M4.045 65V18.454h30.819v8.114H13.886V37.66h18.932v8.114H13.886V65h-9.84Zm37.256 0V30.09h9.682V65h-9.682Zm4.864-39.41c-1.44 0-2.675-.476-3.705-1.43-1.015-.97-1.523-2.13-1.523-3.478 0-1.333.508-2.477 1.523-3.432 1.03-.97 2.265-1.454 3.705-1.454s2.666.484 3.682 1.454c1.03.954 1.545 2.099 1.545 3.432 0 1.348-.515 2.507-1.545 3.477-1.016.955-2.243 1.432-3.682 1.432ZM68.42 44.819V65h-9.682V30.09h9.227v6.16h.409c.773-2.03 2.068-3.636 3.886-4.818 1.819-1.197 4.023-1.796 6.614-1.796 2.424 0 4.538.53 6.34 1.591 1.804 1.06 3.206 2.576 4.206 4.546 1 1.954 1.5 4.288 1.5 7V65h-9.682V44.5c.015-2.136-.53-3.803-1.637-5-1.106-1.212-2.629-1.818-4.568-1.818-1.303 0-2.455.28-3.455.84-.984.561-1.757 1.38-2.318 2.455-.545 1.06-.825 2.341-.84 3.841Z"/><path fill="#0962E8" d="M121.045 65V18.454h9.841v20.523h.614l16.75-20.522h11.795l-17.272 20.84L160.25 65h-11.773l-12.75-19.136-4.841 5.909V65h-9.841Zm46.515 0V30.09h9.682V65h-9.682Zm4.864-39.41c-1.44 0-2.674-.476-3.705-1.43-1.015-.97-1.523-2.13-1.523-3.478 0-1.333.508-2.477 1.523-3.432 1.031-.97 2.265-1.454 3.705-1.454 1.439 0 2.666.484 3.682 1.454 1.03.954 1.545 2.099 1.545 3.432 0 1.348-.515 2.507-1.545 3.477-1.016.955-2.243 1.432-3.682 1.432Zm31.526 4.5v7.274h-21.023V30.09h21.023Zm-16.25-8.363h9.682v32.546c0 .894.136 1.59.409 2.09.272.486.651.826 1.136 1.023.5.197 1.076.296 1.727.296a8.26 8.26 0 0 0 1.364-.114c.455-.09.803-.159 1.045-.204l1.523 7.204c-.485.152-1.166.326-2.045.523-.879.212-1.947.34-3.205.386-2.333.091-4.379-.22-6.136-.931-1.743-.713-3.099-1.819-4.068-3.319-.97-1.5-1.447-3.394-1.432-5.681v-33.82Z"/></svg>