<?xml version="1.0" encoding="utf-8"?>
<!-- Generator: Adobe Illustrator 26.0.2, SVG Export Plug-In . SVG Version: 6.00 Build 0)  -->
<svg version="1.1" id="Layer_1" xmlns="http://www.w3.org/2000/svg" xmlns:xlink="http://www.w3.org/1999/xlink" x="0px" y="0px"
	 viewBox="0 0 24 24" style="enable-background:new 0 0 24 24;" xml:space="preserve">
<style type="text/css">
	.st0{fill:#222221;}
</style>
<path class="st0" d="M22,10.9C21.2,9.8,19.4,9,17.2,9C15.5,9,14,9.5,13,10.3V8.2V7.7V4.9c0-0.1,0-0.1,0-0.2c0-0.1,0-0.2,0-0.3
	c0-1.7-2.5-3-5.8-3s-5.8,1.3-5.8,3c0,0.1,0,0.2,0,0.3c0,0.1,0,0.1,0,0.2v2.9v0.5v3.3v0.6V16c0,0.1,0,0.2,0,0.2c0,0,0,0.1,0,0.1v3.3
	c0,1.7,2.5,3,5.8,3c2.3,0,4.3-0.6,5.2-1.6c0.9,1,2.6,1.6,4.8,1.6c3.1,0,5.4-1.3,5.4-3v-3.3c0,0,0-0.1,0-0.1c0-0.1,0-0.1,0-0.2v-4.4
	C22.6,11.2,22.3,10.9,22,10.9z M21.4,16c0,1.4-1.9,2.6-4.2,2.6C15,18.5,13,17.4,13,16v-1.3c1,0.8,2.5,1.3,4.2,1.3
	c1.7,0,3.2-0.5,4.2-1.3V16z M11.8,7.7v0.5c0,0.7-1.8,1.8-4.6,1.8s-4.6-1-4.6-1.8V7.7V6.2c1,0.7,2.7,1.1,4.6,1.1
	c1.9,0,3.6-0.4,4.6-1.1V7.7z M7.2,11.2c1.9,0,3.6-0.4,4.6-1.1v1.5v0.6c0,1.4-2.1,2.6-4.6,2.6s-4.6-1.2-4.6-2.6v-0.6V10
	C3.6,10.7,5.3,11.2,7.2,11.2z M2.6,14.5c1.1,0.9,2.7,1.5,4.6,1.5c1.9,0,3.6-0.6,4.6-1.5V16c0,1.4-2.1,2.6-4.6,2.6S2.6,17.4,2.6,16
	V14.5z M17.2,10.2c2.3,0,4.2,1,4.2,2.3c0,1.2-1.9,2.3-4.2,2.3c-2.3,0-4.2-1-4.2-2.3C13,11.3,15,10.2,17.2,10.2z M7.2,2.6
	c2.9,0,4.6,1,4.6,1.8s-1.8,1.8-4.6,1.8s-4.6-1-4.6-1.8S4.4,2.6,7.2,2.6z M7.2,21.4c-2.9,0-4.6-1-4.6-1.8v-1.3
	c1.1,0.9,2.7,1.5,4.6,1.5c1.9,0,3.6-0.6,4.6-1.5v1.3C11.8,20.4,10.1,21.4,7.2,21.4z M17.2,21.4c-2.4,0-4.2-0.9-4.2-1.8v-1.3
	c1,0.9,2.5,1.4,4.2,1.4c1.7,0,3.2-0.5,4.2-1.4v1.3C21.4,20.5,19.6,21.4,17.2,21.4z"/>
</svg>
