<?xml version="1.0" encoding="utf-8"?>
<!-- Generator: Adobe Illustrator 26.0.2, SVG Export Plug-In . SVG Version: 6.00 Build 0)  -->
<svg version="1.1" id="Layer_1" xmlns="http://www.w3.org/2000/svg" xmlns:xlink="http://www.w3.org/1999/xlink" x="0px" y="0px"
	 viewBox="0 0 24 24" style="enable-background:new 0 0 24 24;" xml:space="preserve">
<style type="text/css">
	.st0{fill:#222221;}
</style>
<g>
	<path class="st0" d="M12,8c1.6,0,2.9-1.3,2.9-2.9c0-1.6-1.3-2.9-2.9-2.9c-1.6,0-2.9,1.3-2.9,2.9C9.1,6.6,10.4,8,12,8z M12,3.3
		c1,0,1.7,0.8,1.7,1.7c0,1-0.8,1.7-1.7,1.7c-1,0-1.7-0.8-1.7-1.7C10.3,4,11,3.3,12,3.3z"/>
	<path class="st0" d="M6.4,15h11.2c0.3,0,0.6-0.3,0.6-0.6c0-0.5,0-0.7,0-0.9c-0.2-2.1-1.8-3.7-3.9-3.9c-0.2,0-0.4,0-0.9,0h-2.8
		c-0.5,0-0.7,0-0.9,0C7.6,9.8,6,11.4,5.8,13.5c0,0.2,0,0.4,0,0.9C5.8,14.7,6,15,6.4,15z M7,13.6c0.1-1.5,1.3-2.7,2.8-2.8
		c0.2,0,0.4,0,0.8,0h2.8c0.4,0,0.6,0,0.8,0c1.5,0.1,2.7,1.3,2.8,2.8c0,0.1,0,0.1,0,0.2H7C7,13.7,7,13.7,7,13.6z"/>
	<path class="st0" d="M22,15.3c0-0.6-0.3-1.6-1.7-2.5c-0.3-0.2-0.6-0.1-0.8,0.2c-0.2,0.3-0.1,0.6,0.2,0.8c0.5,0.3,1.1,0.9,1.1,1.5
		c0,1.5-3.5,3.1-8.5,3.1l-2.2-2.2c-0.2-0.2-0.6-0.2-0.8,0c-0.2,0.2-0.2,0.6,0,0.8l1.3,1.3c-4.3-0.3-7.3-1.8-7.3-3.1
		c0-0.6,0.6-1.1,1.1-1.5c0.3-0.2,0.4-0.6,0.2-0.8c-0.2-0.3-0.6-0.4-0.8-0.2C2.3,13.7,2,14.7,2,15.3c0,2.3,3.6,4,8.6,4.3L9.2,21
		c-0.2,0.2-0.2,0.6,0,0.8C9.3,21.9,9.5,22,9.7,22c0.2,0,0.3-0.1,0.4-0.2l2.2-2.2C17.8,19.6,22,17.8,22,15.3z"/>
</g>
</svg>
