<?xml version="1.0" encoding="utf-8"?>
<!-- Generator: Adobe Illustrator 26.0.2, SVG Export Plug-In . SVG Version: 6.00 Build 0)  -->
<svg version="1.1" id="Layer_1" xmlns="http://www.w3.org/2000/svg" xmlns:xlink="http://www.w3.org/1999/xlink" x="0px" y="0px"
	 viewBox="0 0 24 24" style="enable-background:new 0 0 24 24;" xml:space="preserve">
<style type="text/css">
	.st0{fill-rule:evenodd;clip-rule:evenodd;fill:#222221;}
</style>
<path class="st0" d="M12.6,2h-1.2C10.7,2,10,2.3,9.5,2.8c-0.4,0.4-0.7,1-0.8,1.6l0,0.2c0,0.6-0.5,1.1-1.1,1.1c-0.1,0-0.3,0-0.4-0.1
	L7.1,5.5c-1.2-0.7-2.8-0.3-3.6,1l-0.7,1c-0.7,1.2-0.4,2.7,0.8,3.4L3.8,11c0.4,0.2,0.6,0.6,0.6,1c0,0.4-0.2,0.7-0.5,0.9L3.8,13
	c-1.2,0.7-1.6,2.1-1,3.3l0.1,0.2l0.6,1.1c0.3,0.6,0.9,1,1.6,1.2c0.6,0.2,1.2,0.1,1.8-0.1L7,18.5c0.3-0.2,0.6-0.2,0.9-0.1
	c0.3,0.1,0.5,0.3,0.7,0.5c0.1,0.1,0.1,0.3,0.1,0.4l0,0.1c0,1.4,1.2,2.5,2.6,2.5h1.2c1.4,0,2.5-1,2.6-2.4l0-0.2
	c0-0.6,0.5-1.1,1.1-1.2c0,0,0,0,0,0c0.1,0,0.3,0,0.4,0.1l0.1,0.1c1.1,0.6,2.7,0.3,3.4-0.8l0.1-0.2l0.7-1.1c0.4-0.6,0.5-1.3,0.3-2
	c-0.2-0.6-0.5-1.1-1-1.4L20.2,13c-0.3-0.1-0.5-0.4-0.6-0.7c-0.1-0.3,0-0.6,0.1-0.8c0.1-0.1,0.2-0.3,0.3-0.4l0.3-0.2
	c1.1-0.7,1.4-2.1,0.9-3.2l-0.1-0.1c0,0,0-0.1,0-0.1l-0.6-1c-0.7-1.2-2.2-1.6-3.4-1L17,5.5c-0.3,0.2-0.6,0.2-0.9,0.1
	c-0.3-0.1-0.5-0.3-0.7-0.5c-0.1-0.1-0.1-0.3-0.1-0.4l0-0.1c0-0.6-0.2-1.3-0.7-1.8C14,2.3,13.3,2,12.6,2z M11.4,3.4h1.2
	c0.3,0,0.6,0.1,0.8,0.3c0.2,0.2,0.3,0.5,0.3,0.8l0,0.3c0,0.4,0.2,0.7,0.3,1c0.4,0.6,0.9,1,1.6,1.2c0.7,0.2,1.4,0.1,2-0.3l0.1-0.1
	l0.1,0c0.5-0.2,1.1,0.1,1.3,0.5l0.6,1l0,0l0.1,0.1c0.2,0.5,0,1.1-0.5,1.4l-0.2,0.1c-0.3,0.2-0.6,0.5-0.8,0.8
	c-0.3,0.6-0.4,1.3-0.3,1.9c0.2,0.6,0.5,1.1,1.1,1.5l0.3,0.2c0.5,0.3,0.6,1,0.3,1.5l-0.6,1.1l-0.1,0.1c-0.3,0.4-0.9,0.6-1.4,0.4
	l-0.3-0.2c-0.3-0.1-0.7-0.2-1-0.2c-0.7,0-1.4,0.3-1.9,0.8c-0.5,0.5-0.8,1.1-0.8,1.8l0,0.1c0,0.5-0.5,1-1.1,1h-1.2
	c-0.6,0-1.1-0.4-1.1-1l0-0.4c-0.1-1.1-0.9-1.9-1.9-2.2c-0.7-0.2-1.4-0.1-2,0.3l-0.1,0.1c-0.2,0.1-0.5,0.1-0.8,0
	c-0.3-0.1-0.5-0.3-0.7-0.5l-0.6-1.1l-0.1-0.1c-0.2-0.5,0-1.1,0.5-1.4l0.2-0.1c0.7-0.5,1.2-1.3,1.2-2.1c0-0.9-0.4-1.7-1.2-2.1
	L4.4,9.7C4,9.4,3.8,8.7,4.1,8.2l0.7-1c0.3-0.5,1-0.7,1.6-0.4l0.2,0.1C6.9,7,7.3,7.1,7.6,7.1c1.4,0,2.5-1,2.6-2.4l0-0.3
	c0-0.2,0.1-0.5,0.3-0.7C10.8,3.6,11.1,3.4,11.4,3.4L11.4,3.4z M12,8.7c-1.8,0-3.3,1.5-3.3,3.3s1.5,3.3,3.3,3.3s3.3-1.5,3.3-3.3
	S13.8,8.7,12,8.7z M12,10.2c1,0,1.9,0.8,1.9,1.8S13,13.8,12,13.8S10.1,13,10.1,12S11,10.2,12,10.2z"/>
</svg>
